<svg xmlns="http://www.w3.org/2000/svg" viewBox="0 0 68.31 5.91">
  <defs>
    <style>.cls-1{fill:white;stroke:white;stroke-miterlimit:10;stroke-width:0.5px ;}</style>
  </defs>
  <title>Asset 14</title>
  <g id="Layer_2" data-name="Layer 2">
    <g id="Layer_1-2" data-name="Layer 1">
      <path class="cls-1" d="M.52.13v5.6H.13V.13Z"/>
      <path class="cls-1" d="M1.43,3.75a2,2,0,0,1,2-2.06,2,2,0,0,1,2,2.06,1.93,1.93,0,0,1-2,2A1.93,1.93,0,0,1,1.43,3.75Zm3.63,0A1.6,1.6,0,0,0,3.44,2.07,1.6,1.6,0,0,0,1.81,3.75,1.56,1.56,0,0,0,3.44,5.39,1.56,1.56,0,0,0,5.06,3.75Z"/>
      <path class="cls-1" d="M6.72,1.77l0,.7A1.39,1.39,0,0,1,8,1.73,1.54,1.54,0,0,1,8.89,2l-.18.32A1.27,1.27,0,0,0,8,2.1a1.31,1.31,0,0,0-1.3,1.32v2.3H6.35V1.77Z"/>
      <path class="cls-1" d="M9.26,3.75a2,2,0,0,1,2-2,1.85,1.85,0,0,1,2,2.22H9.66a1.55,1.55,0,0,0,1.61,1.46,1.86,1.86,0,0,0,1.42-.6L13,5a2.17,2.17,0,0,1-1.7.76A1.94,1.94,0,0,1,9.26,3.75Zm3.61-.16a1.45,1.45,0,0,0-1.6-1.52A1.58,1.58,0,0,0,9.66,3.59Z"/>
      <path class="cls-1" d="M14.62,1.77v.7A1.57,1.57,0,0,1,16,1.7a1.65,1.65,0,0,1,1.78,1.74V5.72h-.39V3.45A1.27,1.27,0,0,0,16,2.08a1.37,1.37,0,0,0-1.38,1.44v2.2h-.39V1.77Z"/>
      <path class="cls-1" d="M18.72,1.77h3v.15L19.2,5.35h2.49v.37h-3.1V5.59l2.52-3.46H18.72Z"/>
      <path class="cls-1" d="M22.33,3.75a2,2,0,1,1,4,0,2,2,0,1,1-4,0Zm3.63,0a1.62,1.62,0,1,0-3.25,0,1.62,1.62,0,1,0,3.25,0Z"/>
      <path class="cls-1" d="M33.23.13v5.6h-.38V4.85a1.86,1.86,0,0,1-1.65.94,1.89,1.89,0,0,1-2-2,1.9,1.9,0,0,1,2-2,1.75,1.75,0,0,1,1.64.93V.13ZM29.61,3.75A1.53,1.53,0,0,0,31.23,5.4a1.58,1.58,0,0,0,1.62-1.66,1.58,1.58,0,0,0-1.62-1.66A1.53,1.53,0,0,0,29.61,3.75Z"/>
      <path class="cls-1" d="M34.23,3.75a2,2,0,0,1,2-2,1.85,1.85,0,0,1,2,2.22H34.63a1.55,1.55,0,0,0,1.61,1.46,1.86,1.86,0,0,0,1.42-.6l.28.22a2.17,2.17,0,0,1-1.7.76A1.94,1.94,0,0,1,34.23,3.75Zm3.61-.16a1.45,1.45,0,0,0-1.6-1.52,1.58,1.58,0,0,0-1.61,1.52Z"/>
      <path class="cls-1" d="M39.6.13v5.6H39.2V.13Z"/>
      <path class="cls-1" d="M43.26,1.77l0,.7a1.39,1.39,0,0,1,1.31-.74,1.54,1.54,0,0,1,.85.23l-.18.32a1.27,1.27,0,0,0-.67-.18,1.31,1.31,0,0,0-1.3,1.32v2.3h-.39V1.77Z"/>
      <path class="cls-1" d="M45.84,3.75a2,2,0,1,1,4,0,2,2,0,1,1-4,0Zm3.63,0a1.62,1.62,0,1,0-3.25,0,1.62,1.62,0,1,0,3.25,0Z"/>
      <path class="cls-1" d="M53.48,2.49a1.69,1.69,0,0,0-1.23-.42c-.62,0-1.21.22-1.19.73s.7.63,1.2.72c.7.12,1.67.24,1.63,1.16s-.93,1.1-1.62,1.1A2,2,0,0,1,50.53,5l.29-.26a1.75,1.75,0,0,0,1.45.67c.48,0,1.21-.13,1.23-.75s-.64-.68-1.29-.78-1.53-.27-1.54-1.06.77-1.11,1.57-1.1a2.07,2.07,0,0,1,1.47.53Z"/>
      <path class="cls-1" d="M58.55,1.77V5.72h-.39V4.88a1.85,1.85,0,0,1-1.62.9,2,2,0,0,1-2-2,2,2,0,0,1,2-2,1.79,1.79,0,0,1,1.62.91V1.77Zm-3.62,2A1.59,1.59,0,0,0,56.55,5.4a1.65,1.65,0,0,0,0-3.3A1.58,1.58,0,0,0,54.93,3.75Z"/>
      <path class="cls-1" d="M60,1.77l0,.7a1.39,1.39,0,0,1,1.31-.74,1.54,1.54,0,0,1,.85.23L62,2.28a1.27,1.27,0,0,0-.67-.18A1.31,1.31,0,0,0,60,3.42v2.3h-.39V1.77Z"/>
      <path class="cls-1" d="M63.28.48a.32.32,0,0,1-.63,0A.32.32,0,0,1,63.28.48Zm-.52,1.27v4h.39v-4Z"/>
      <path class="cls-1" d="M64.17,3.75a2,2,0,1,1,4,0,2,2,0,1,1-4,0Zm3.63,0a1.62,1.62,0,1,0-3.25,0,1.62,1.62,0,1,0,3.25,0Z"/>
    </g>
  </g>
  </svg>